<svg xmlns="http://www.w3.org/2000/svg" viewBox="0 0 32 32" role="img" aria-label="Farlig kryssing">
  <path fill="#fff" d="M10 5.5A2.5 2.5 0 1 1 15 5.5a2.5 2.5 0 0 1-5 0Zm4.2 4.2a2 2 0 0 0-2.9.1l-4.5 5.4a1.5 1.5 0 1 0 2.3 1.9l2.3-2.8 2.1 2.2-3.6 8.4a1.6 1.6 0 0 0 2.9 1.2l3-7 2.2 2.2v5.2a1.5 1.5 0 0 0 3 0v-5.8c0-.4-.2-.8-.4-1.1l-3.3-3.4 1.2-2.4 1.8 1.4a1.5 1.5 0 1 0 1.8-2.4l-3.3-2.5a2 2 0 0 0-3 .7l-.9 1.9-2.7-2.8Z"/>
  <path fill="#fff" d="M5 27h4v2H5v-2Zm6 0h4v2h-4v-2Zm6 0h4v2h-4v-2Zm6 0h4v2h-4v-2Z"/>
</svg>
