<svg xmlns="http://www.w3.org/2000/svg" width="760" height="1480" viewBox="0 0 760 1480" font-family="'Poppins','Segoe UI',sans-serif">
  <defs>
    <filter id="blur" x="-30%" y="-30%" width="160%" height="160%"><feGaussianBlur stdDeviation="20"/></filter>
    <filter id="soft" x="-20%" y="-20%" width="140%" height="140%"><feDropShadow dx="0" dy="6" stdDeviation="12" flood-color="#0b5d4d" flood-opacity="0.18"/></filter>
  </defs>
  <rect width="760" height="1480" rx="54" fill="#f3eee1"/>
  <rect x="310" y="26" width="140" height="12" rx="6" fill="#d9d2c0"/>
  <!-- header -->
  <g transform="translate(40,70)">
    <circle cx="14" cy="16" r="7" fill="#0b5d4d"/><circle cx="34" cy="16" r="7" fill="#f4b740"/><circle cx="54" cy="16" r="7" fill="#d11f2a"/>
    <text x="78" y="22" font-size="26" font-weight="700" fill="#1f2a26">Finns Fairway</text>
    <text x="0" y="58" font-size="30" font-weight="800" fill="#0b5d4d">Spor-kart</text>
    <text x="0" y="88" font-size="20" fill="#6b746f">Strava-følelse, men personvern-trygt for barn</text>
  </g>
  
  <g transform="translate(40,180)" filter="url(#soft)">
    <clipPath id="mc1"><rect width="680" height="720" rx="26"/></clipPath>
    <g clip-path="url(#mc1)">
      
    <rect x="0" y="0" width="680" height="720" fill="#dfe6df"/>
    <path d="M0 446.4 C 204 360, 374.00000000000006 561.6, 680 432 L 680 720 L 0 720 Z" fill="#cfe3dd" opacity="0.8"/>
    <path d="M68 0 C 136 216, 34 360, 122.39999999999999 720" stroke="#bcd6ea" stroke-width="22" fill="none" opacity="0.7"/>
    <line x1="97.14285714285714" y1="0" x2="79.14285714285714" y2="720" stroke="#ffffff" stroke-width="9"/>
<line x1="194.28571428571428" y1="0" x2="176.28571428571428" y2="720" stroke="#ffffff" stroke-width="9"/>
<line x1="291.42857142857144" y1="0" x2="273.42857142857144" y2="720" stroke="#ffffff" stroke-width="9"/>
<line x1="388.57142857142856" y1="0" x2="370.57142857142856" y2="720" stroke="#ffffff" stroke-width="9"/>
<line x1="485.7142857142857" y1="0" x2="467.7142857142857" y2="720" stroke="#ffffff" stroke-width="9"/>
<line x1="582.8571428571429" y1="0" x2="564.8571428571429" y2="720" stroke="#ffffff" stroke-width="9"/>
<line x1="0" y1="80" x2="680" y2="90" stroke="#ffffff" stroke-width="9"/>
<line x1="0" y1="160" x2="680" y2="170" stroke="#ffffff" stroke-width="9"/>
<line x1="0" y1="240" x2="680" y2="250" stroke="#ffffff" stroke-width="9"/>
<line x1="0" y1="320" x2="680" y2="330" stroke="#ffffff" stroke-width="9"/>
<line x1="0" y1="400" x2="680" y2="410" stroke="#ffffff" stroke-width="9"/>
<line x1="0" y1="480" x2="680" y2="490" stroke="#ffffff" stroke-width="9"/>
<line x1="0" y1="560" x2="680" y2="570" stroke="#ffffff" stroke-width="9"/>
<line x1="0" y1="640" x2="680" y2="650" stroke="#ffffff" stroke-width="9"/>
    <rect x="394.4" y="129.6" width="70" height="52" rx="7" fill="#cdd8cf"/>
    <rect x="204" y="288" width="58" height="46" rx="7" fill="#cdd8cf"/>
  
      
    <path d="M150 300 C 230 360, 280 470, 380 520" stroke="#0b5d4d" stroke-width="7" fill="none" stroke-linecap="round" opacity="0.85"/>
    <circle cx="150" cy="300" r="16" fill="#0b5d4d" opacity="0.16"/>
    <circle cx="150" cy="300" r="5" fill="#0b5d4d"/>
    <circle cx="380" cy="520" r="9" fill="#fff" stroke="#0b5d4d" stroke-width="4"/>
    <path d="M620 260 C 520 360, 470 520, 430 540" stroke="#2f7d4f" stroke-width="7" fill="none" stroke-linecap="round" opacity="0.85"/>
    <circle cx="620" cy="260" r="16" fill="#2f7d4f" opacity="0.16"/>
    <circle cx="620" cy="260" r="5" fill="#2f7d4f"/>
    <circle cx="430" cy="540" r="9" fill="#fff" stroke="#2f7d4f" stroke-width="4"/>
    <path d="M120 820 C 220 720, 300 640, 392 540" stroke="#c2410c" stroke-width="7" fill="none" stroke-linecap="round" opacity="0.85"/>
    <circle cx="120" cy="820" r="16" fill="#c2410c" opacity="0.16"/>
    <circle cx="120" cy="820" r="5" fill="#c2410c"/>
    <circle cx="392" cy="540" r="9" fill="#fff" stroke="#c2410c" stroke-width="4"/>
    <path d="M640 800 C 540 700, 470 600, 410 545" stroke="#1d4ed8" stroke-width="7" fill="none" stroke-linecap="round" opacity="0.85"/>
    <circle cx="640" cy="800" r="16" fill="#1d4ed8" opacity="0.16"/>
    <circle cx="640" cy="800" r="5" fill="#1d4ed8"/>
    <circle cx="410" cy="545" r="9" fill="#fff" stroke="#1d4ed8" stroke-width="4"/>
    <path d="M250 850 C 300 720, 360 600, 400 548" stroke="#7c3aed" stroke-width="7" fill="none" stroke-linecap="round" opacity="0.85"/>
    <circle cx="250" cy="850" r="16" fill="#7c3aed" opacity="0.16"/>
    <circle cx="250" cy="850" r="5" fill="#7c3aed"/>
    <circle cx="400" cy="548" r="9" fill="#fff" stroke="#7c3aed" stroke-width="4"/>
      <circle cx="400" cy="535" r="22" fill="#f4b740" stroke="#0b5d4d" stroke-width="4"/><text x="400" y="543" font-size="22" text-anchor="middle">⚽</text>
    </g>
    <rect width="680" height="720" rx="26" fill="none" stroke="#e4ddcb" stroke-width="2"/>
  </g>
  <g transform="translate(40,924)">
    <rect width="680" height="320" rx="26" fill="#fff" filter="url(#soft)"/>
    <text x="28" y="50" font-size="24" font-weight="800" fill="#1f2a26">Alle spor til Idrettsbanen</text>
    <text x="28" y="86" font-size="19" fill="#6b746f">142 turer denne måneden · 38 km i snitt</text>
    <g transform="translate(28,118)">
      <circle r="9" cx="9" cy="9" fill="#fff" stroke="#0b5d4d" stroke-width="4"/>
      <text x="36" y="16" font-size="19" fill="#1f2a26">Hvit ring = avrundet startsone (~100 m)</text>
      <circle r="9" cx="9" cy="51" fill="#f4b740" stroke="#0b5d4d" stroke-width="3"/>
      <text x="36" y="58" font-size="19" fill="#1f2a26">Gull = aktiviteten/banen</text>
      <line x1="0" y1="92" x2="18" y2="92" stroke="#0b5d4d" stroke-width="7" stroke-linecap="round"/>
      <text x="36" y="99" font-size="19" fill="#1f2a26">Farget linje = én sykkeltur (endene klippes)</text>
    </g>
    <rect x="28" y="246" width="624" height="52" rx="14" fill="#e9f3ef"/>
    <text x="44" y="279" font-size="18" fill="#0b5d4d" font-weight="700">🔒 Hjem vises aldri – de første/siste 150 m fjernes før visning</text>
  </g>
  </svg>