<svg xmlns="http://www.w3.org/2000/svg" width="760" height="1480" viewBox="0 0 760 1480" font-family="'Poppins','Segoe UI',sans-serif">
  <defs>
    <filter id="blur" x="-30%" y="-30%" width="160%" height="160%"><feGaussianBlur stdDeviation="20"/></filter>
    <filter id="soft" x="-20%" y="-20%" width="140%" height="140%"><feDropShadow dx="0" dy="6" stdDeviation="12" flood-color="#0b5d4d" flood-opacity="0.18"/></filter>
  </defs>
  <rect width="760" height="1480" rx="54" fill="#f3eee1"/>
  <rect x="310" y="26" width="140" height="12" rx="6" fill="#d9d2c0"/>
  <!-- header -->
  <g transform="translate(40,70)">
    <circle cx="14" cy="16" r="7" fill="#0b5d4d"/><circle cx="34" cy="16" r="7" fill="#f4b740"/><circle cx="54" cy="16" r="7" fill="#d11f2a"/>
    <text x="78" y="22" font-size="26" font-weight="700" fill="#1f2a26">Finns Fairway</text>
    <text x="0" y="58" font-size="30" font-weight="800" fill="#0b5d4d">Aktivitetsfeed</text>
    <text x="0" y="88" font-size="20" fill="#6b746f">Strava-stil liste over turer</text>
  </g>
  
  
  <g transform="translate(40,190)">
    <rect width="680" height="150" rx="22" fill="#fff" filter="url(#soft)"/>
    <g transform="translate(24,25)"><rect width="120" height="100" rx="12" fill="#dfe6df"/><path d="M10 70 C 40 40, 70 80, 110 30" stroke="#0b5d4d" stroke-width="5" fill="none" stroke-linecap="round"/><circle cx="10" cy="70" r="6" fill="#fff" stroke="#0b5d4d" stroke-width="3"/><circle cx="110" cy="30" r="7" fill="#f4b740"/></g>
    <text x="164" y="46" font-size="23" font-weight="800" fill="#1f2a26">Lars · Vågsbygd IL</text>
    <text x="164" y="78" font-size="18" fill="#6b746f">Syklet til trening · i dag</text>
    <g transform="translate(164,100)">
      <text x="0" y="20" font-size="26" font-weight="800" fill="#0b5d4d">3,8</text><text x="0" y="42" font-size="15" fill="#6b746f">km</text>
      <text x="120" y="20" font-size="26" font-weight="800" fill="#0b5d4d">0:18</text><text x="120" y="42" font-size="15" fill="#6b746f">tid</text>
      <text x="250" y="22" font-size="24">⛑</text><text x="288" y="20" font-size="18" fill="#3c4a44">hjelm</text>
    </g>
    <text x="600" y="40" font-size="22">🚲</text>
  </g>
  
  <g transform="translate(40,360)">
    <rect width="680" height="150" rx="22" fill="#fff" filter="url(#soft)"/>
    <g transform="translate(24,25)"><rect width="120" height="100" rx="12" fill="#dfe6df"/><path d="M10 70 C 40 40, 70 80, 110 30" stroke="#0b5d4d" stroke-width="5" fill="none" stroke-linecap="round"/><circle cx="10" cy="70" r="6" fill="#fff" stroke="#0b5d4d" stroke-width="3"/><circle cx="110" cy="30" r="7" fill="#f4b740"/></g>
    <text x="164" y="46" font-size="23" font-weight="800" fill="#1f2a26">Mia · Torridal IK</text>
    <text x="164" y="78" font-size="18" fill="#6b746f">Syklet til trening · i dag</text>
    <g transform="translate(164,100)">
      <text x="0" y="20" font-size="26" font-weight="800" fill="#0b5d4d">5,1</text><text x="0" y="42" font-size="15" fill="#6b746f">km</text>
      <text x="120" y="20" font-size="26" font-weight="800" fill="#0b5d4d">0:24</text><text x="120" y="42" font-size="15" fill="#6b746f">tid</text>
      <text x="250" y="22" font-size="24">⛑</text><text x="288" y="20" font-size="18" fill="#3c4a44">hjelm</text>
    </g>
    <text x="600" y="40" font-size="22">🥇</text>
  </g>
  
  <g transform="translate(40,530)">
    <rect width="680" height="150" rx="22" fill="#fff" filter="url(#soft)"/>
    <g transform="translate(24,25)"><rect width="120" height="100" rx="12" fill="#dfe6df"/><path d="M10 70 C 40 40, 70 80, 110 30" stroke="#0b5d4d" stroke-width="5" fill="none" stroke-linecap="round"/><circle cx="10" cy="70" r="6" fill="#fff" stroke="#0b5d4d" stroke-width="3"/><circle cx="110" cy="30" r="7" fill="#f4b740"/></g>
    <text x="164" y="46" font-size="23" font-weight="800" fill="#1f2a26">Noah · Flekkerøy</text>
    <text x="164" y="78" font-size="18" fill="#6b746f">Syklet til trening · i dag</text>
    <g transform="translate(164,100)">
      <text x="0" y="20" font-size="26" font-weight="800" fill="#0b5d4d">2,2</text><text x="0" y="42" font-size="15" fill="#6b746f">km</text>
      <text x="120" y="20" font-size="26" font-weight="800" fill="#0b5d4d">0:11</text><text x="120" y="42" font-size="15" fill="#6b746f">tid</text>
      <text x="250" y="22" font-size="24">–</text><text x="288" y="20" font-size="18" fill="#3c4a44">uten</text>
    </g>
    <text x="600" y="40" font-size="22">🚲</text>
  </g>
  
  <g transform="translate(40,700)">
    <rect width="680" height="150" rx="22" fill="#fff" filter="url(#soft)"/>
    <g transform="translate(24,25)"><rect width="120" height="100" rx="12" fill="#dfe6df"/><path d="M10 70 C 40 40, 70 80, 110 30" stroke="#0b5d4d" stroke-width="5" fill="none" stroke-linecap="round"/><circle cx="10" cy="70" r="6" fill="#fff" stroke="#0b5d4d" stroke-width="3"/><circle cx="110" cy="30" r="7" fill="#f4b740"/></g>
    <text x="164" y="46" font-size="23" font-weight="800" fill="#1f2a26">Ada · Vindbjart</text>
    <text x="164" y="78" font-size="18" fill="#6b746f">Syklet til trening · i dag</text>
    <g transform="translate(164,100)">
      <text x="0" y="20" font-size="26" font-weight="800" fill="#0b5d4d">6,4</text><text x="0" y="42" font-size="15" fill="#6b746f">km</text>
      <text x="120" y="20" font-size="26" font-weight="800" fill="#0b5d4d">0:31</text><text x="120" y="42" font-size="15" fill="#6b746f">tid</text>
      <text x="250" y="22" font-size="24">⛑</text><text x="288" y="20" font-size="18" fill="#3c4a44">hjelm</text>
    </g>
    <text x="600" y="40" font-size="22">🚲</text>
  </g>
  <g transform="translate(40,880)">
    <rect width="680" height="120" rx="22" fill="#e9f3ef"/>
    <text x="28" y="48" font-size="22" font-weight="800" fill="#0b5d4d">Lagkonkurranse · august</text>
    <text x="28" y="84" font-size="19" fill="#3c4a44">Vågsbygd IL leder med 142 turer 🥇</text>
  </g>
  <text x="40" y="1040" font-size="18" fill="#6b746f">Navn vises kun hvis dere vil – kan også være «En syklist».</text>
  </svg>